<svg width="14" height="9" viewBox="0 0 14 9" fill="none" xmlns="http://www.w3.org/2000/svg">
<path d="M7.07101 5.814L12.021 0.864004C12.1133 0.768494 12.2236 0.692312 12.3456 0.639903C12.4676 0.587494 12.5988 0.559907 12.7316 0.558754C12.8644 0.5576 12.9961 0.582901 13.119 0.633182C13.2419 0.683463 13.3535 0.757716 13.4474 0.851609C13.5413 0.945502 13.6155 1.05715 13.6658 1.18005C13.7161 1.30295 13.7414 1.43463 13.7403 1.56741C13.7391 1.70018 13.7115 1.8314 13.6591 1.95341C13.6067 2.07541 13.5305 2.18576 13.435 2.278L7.77801 7.935C7.59048 8.12247 7.33617 8.22779 7.07101 8.22779C6.80584 8.22779 6.55153 8.12247 6.36401 7.935L0.707006 2.278C0.611496 2.18576 0.535314 2.07541 0.482905 1.95341C0.430496 1.8314 0.40291 1.70018 0.401756 1.56741C0.400602 1.43463 0.425904 1.30295 0.476185 1.18005C0.526466 1.05715 0.600719 0.945502 0.694611 0.851609C0.788504 0.757716 0.900156 0.683463 1.02305 0.633182C1.14595 0.582901 1.27763 0.5576 1.41041 0.558754C1.54319 0.559907 1.67441 0.587494 1.79641 0.639903C1.91841 0.692312 2.02876 0.768494 2.12101 0.864004L7.07101 5.814Z" fill="white"/>
</svg>
